<?xml version="1.0" encoding="iso-8859-1"?>
<!-- Generator: Adobe Illustrator 19.0.0, SVG Export Plug-In . SVG Version: 6.00 Build 0)  -->
<svg version="1.1" id="Capa_1" xmlns="http://www.w3.org/2000/svg" xmlns:xlink="http://www.w3.org/1999/xlink" x="0px" y="0px"
   viewBox="0 0 512.001 512.001" style="enable-background:new 0 0 512.001 512.001;" xml:space="preserve">
<g>
  <g>
    <g>
      <path d="M414.055,182.537h-90.649V76.935V36.473C323.405,16.361,307.044,0,286.933,0H86.775
        C66.664,0,50.303,16.361,50.303,36.473v40.462v358.131v40.462c0,20.111,16.361,36.473,36.473,36.473h200.157
        c20.111,0,36.473-16.361,36.473-36.473v-40.462v-69.021h90.649c15.597,0,28.286-12.689,28.286-28.286V210.823
        C442.341,195.226,429.652,182.537,414.055,182.537z M323.405,202.538h90.65v-0.001c0.319,0,0.632,0.022,0.941,0.057
        c0.099,0.011,0.196,0.03,0.294,0.045c0.21,0.031,0.417,0.068,0.622,0.115c0.109,0.025,0.217,0.054,0.325,0.084
        c0.192,0.052,0.38,0.112,0.566,0.177c0.103,0.036,0.206,0.073,0.307,0.113c0.197,0.078,0.388,0.166,0.576,0.259
        c0.08,0.039,0.163,0.075,0.242,0.117c0.263,0.14,0.52,0.291,0.765,0.458c0.024,0.016,0.045,0.035,0.068,0.051
        c0.22,0.153,0.432,0.315,0.636,0.488c0.076,0.064,0.147,0.134,0.221,0.201c0.146,0.133,0.289,0.269,0.425,0.412
        c0.077,0.081,0.152,0.164,0.226,0.248c0.125,0.142,0.245,0.289,0.36,0.439c0.042,0.054,0.082,0.109,0.123,0.164l-97.347,56.153
        l-1.093,0.63l-16.631,9.593c-3.679,2.12-8.249,2.122-11.928,0l-16.63-9.593l-46.711-26.945v-33.265h72.993H323.405z
         M257.11,274.291l-26.698,15.4v-30.8L257.11,274.291z M70.303,36.473C70.303,27.39,77.691,20,86.775,20h200.157
        c9.083,0,16.473,7.39,16.473,16.473v30.462H70.303V36.473z M303.405,475.527c0,9.083-7.39,16.473-16.473,16.473H86.775
        c-9.083,0-16.473-7.39-16.473-16.473v-30.462h233.103V475.527z M303.405,425.067H70.303V86.935h233.102v95.603h-72.993v-16.87
        c0-5.522-4.478-10-10-10c-5.522,0-10,4.478-10,10v26.87v49.041v65.425v49.042v27.657c0,5.522,4.478,10,10,10
        c5.522,0,10-4.478,10-10v-17.657h72.993V425.067z M420.633,342.782c-0.119,0.151-0.238,0.297-0.363,0.439
        c-0.074,0.084-0.148,0.167-0.226,0.248c-0.137,0.143-0.28,0.28-0.426,0.413c-0.073,0.066-0.144,0.135-0.219,0.199
        c-0.204,0.173-0.416,0.336-0.636,0.488c-0.023,0.016-0.045,0.035-0.068,0.051c-0.246,0.167-0.502,0.318-0.765,0.458
        c-0.079,0.042-0.162,0.077-0.242,0.117c-0.189,0.093-0.38,0.181-0.576,0.259c-0.101,0.04-0.204,0.076-0.307,0.113
        c-0.186,0.066-0.375,0.125-0.567,0.177c-0.107,0.029-0.215,0.058-0.323,0.083c-0.205,0.047-0.413,0.084-0.623,0.115
        c-0.098,0.015-0.194,0.033-0.293,0.045c-0.309,0.035-0.623,0.057-0.941,0.057h-90.649h-20h-72.993v-33.266l46.711-26.944
        l6.638,3.829c4.921,2.839,10.438,4.258,15.956,4.258c1.232,0,2.463-0.082,3.688-0.223c4.263-0.492,8.447-1.829,12.27-4.034
        l6.637-3.829l1.093,0.631l97.347,56.152C420.716,342.673,420.675,342.728,420.633,342.782z M422.341,320.446l-80.015-46.155
        l80.015-46.155V320.446z"/>
      <path d="M229.898,33.467h-86.089c-5.522,0-10,4.478-10,10c0,5.522,4.478,10,10,10h86.089c5.522,0,10-4.478,10-10
        C239.898,37.945,235.421,33.467,229.898,33.467z"/>
      <path d="M174.371,478.533h24.966c5.522,0,10-4.478,10-10c0-5.522-4.478-10-10-10h-24.966c-5.522,0-10,4.478-10,10
        C164.371,474.055,168.849,478.533,174.371,478.533z"/>
      <path d="M451.699,143.667H347.988c-5.522,0-10,4.478-10,10c0,5.522,4.478,10,10,10h103.711c5.523,0,10-4.478,10-10
        S457.221,143.667,451.699,143.667z"/>
      <path d="M391.988,384h-22c-5.522,0-10,4.478-10,10c0,5.522,4.478,10,10,10h22c5.522,0,10-4.478,10-10
        C401.988,388.478,397.51,384,391.988,384z"/>
      <path d="M214.86,133.979c0.54,0.36,1.12,0.67,1.73,0.92c0.6,0.25,1.229,0.44,1.87,0.57c0.64,0.13,1.3,0.2,1.95,0.2
        c0.649,0,1.31-0.07,1.949-0.2c0.641-0.13,1.271-0.32,1.87-0.57c0.61-0.25,1.19-0.56,1.73-0.92c0.55-0.359,1.06-0.779,1.52-1.239
        c0.46-0.46,0.88-0.971,1.24-1.521c0.36-0.54,0.67-1.12,0.92-1.729c0.25-0.601,0.45-1.23,0.57-1.87c0.13-0.641,0.2-1.301,0.2-1.95
        c0-0.65-0.07-1.311-0.2-1.96c-0.12-0.641-0.32-1.271-0.57-1.87s-0.56-1.18-0.92-1.72c-0.36-0.551-0.78-1.061-1.24-1.521
        c-0.46-0.46-0.97-0.88-1.52-1.25c-0.54-0.359-1.12-0.67-1.73-0.92c-0.6-0.25-1.229-0.439-1.87-0.57
        c-1.279-0.26-2.609-0.26-3.899,0c-0.641,0.131-1.271,0.32-1.87,0.57c-0.61,0.25-1.19,0.561-1.73,0.92
        c-0.55,0.37-1.06,0.79-1.52,1.25s-0.88,0.97-1.24,1.521c-0.359,0.54-0.67,1.12-0.92,1.72c-0.25,0.6-0.45,1.229-0.57,1.87
        c-0.13,0.649-0.199,1.31-0.199,1.96c0,2.63,1.069,5.21,2.93,7.07C213.801,133.2,214.311,133.62,214.86,133.979z"/>
    </g>
  </g>
</g>
<g>
</g>
<g>
</g>
<g>
</g>
<g>
</g>
<g>
</g>
<g>
</g>
<g>
</g>
<g>
</g>
<g>
</g>
<g>
</g>
<g>
</g>
<g>
</g>
<g>
</g>
<g>
</g>
<g>
</g>
</svg>
